# Blender v2.76 (sub 0) OBJ File: ''
# www.blender.org
o Cube_Cube.003
v -1.000000 -0.019348 1.000000
v -1.000000 -1.000000 0.019348
v -0.019348 -1.000000 1.000000
v -0.019348 1.000000 1.000000
v -1.000000 1.000000 0.019348
v -1.000000 0.019348 1.000000
v -0.019348 -1.000000 -1.000000
v -1.000000 -1.000000 -0.019348
v -1.000000 -0.019348 -1.000000
v -0.019348 1.000000 -1.000000
v -1.000000 0.019348 -1.000000
v -1.000000 1.000000 -0.019348
v 0.019348 -1.000000 1.000000
v 1.000000 -1.000000 0.019348
v 1.000000 -0.019348 1.000000
v 0.019348 1.000000 1.000000
v 1.000000 0.019348 1.000000
v 1.000000 1.000000 0.019348
v 1.000000 -1.000000 -0.019348
v 0.019348 -1.000000 -1.000000
v 1.000000 -0.019348 -1.000000
v 1.000000 1.000000 -0.019348
v 1.000000 0.019348 -1.000000
v 0.019348 1.000000 -1.000000
vt 0.200823 0.468384
vt 0.000000 0.238723
vt 0.200824 0.000000
vt 0.000000 0.698044
vt 0.409571 0.698044
vt 0.994396 0.675211
vt 0.710389 0.675211
vt 0.704786 0.344014
vt 0.704786 0.168803
vt 0.704786 0.493592
vt 0.415175 0.500000
vt 0.699182 1.000000
vt 0.415175 1.000000
vt 0.409571 0.668803
vt 0.409571 0.000000
vt 0.409571 0.229661
vt 0.208748 0.000000
vt 0.415175 0.162395
vt 0.557179 0.000000
vt 0.699182 0.162395
vt 0.208748 0.468384
vt 0.409571 0.238723
vt 0.409571 0.468384
vt 0.699182 0.662395
vt 0.415175 0.662395
vt 0.557178 0.500000
vt 0.000000 0.229661
vt 0.000000 0.000000
vt 0.000000 0.936767
vt 0.000000 0.707107
vt 0.200823 0.936767
vt 0.000000 0.468384
vt 0.208748 0.936767
vt 0.409571 0.707107
vt 0.409571 0.936767
vt 0.710389 0.000000
vt 0.994397 0.000000
vt 1.000000 0.331197
vt 0.710389 0.337605
vt 1.000000 0.668803
vt 0.994397 0.337606
vt 1.000000 0.344014
vt 0.704786 0.668803
vt 0.409571 0.493592
vt 0.409572 0.168803
vt 0.699182 0.500000
vt 0.704786 0.993592
vt 0.409571 0.993592
vt 0.704786 0.006408
vt 0.704786 0.331197
vt 1.000000 0.006408
vn 0.000000 -1.000000 0.000000
vn 1.000000 0.000000 0.000000
vn 0.000000 1.000000 0.000000
vn 0.000000 0.000000 1.000000
vn 0.000000 0.000000 -1.000000
vn -0.577400 -0.577400 0.577400
vn -0.577400 0.577400 0.577400
vn -0.577400 -0.577400 -0.577400
vn -0.577400 0.577400 -0.577400
vn 0.577400 -0.577400 0.577400
vn 0.577400 0.577400 0.577400
vn 0.577400 -0.577400 -0.577400
vn 0.577400 0.577400 -0.577400
vn -1.000000 0.000000 0.000000
s off
f 20/1/1 19/2/1 13/3/1
f 15/4/2 14/1/2 21/5/2
f 10/6/3 12/7/3 4/8/3
f 1/9/4 3/10/4 15/11/4
f 21/12/5 20/13/5 9/14/5
f 1/15/6 2/16/6 3/17/6
f 4/18/7 5/19/7 6/20/7
f 7/21/8 8/22/8 9/23/8
f 10/24/9 11/25/9 12/26/9
f 13/3/10 14/27/10 15/28/10
f 16/29/11 17/30/11 18/31/11
f 19/2/12 20/1/12 21/32/12
f 22/33/13 23/34/13 24/35/13
f 9/36/14 8/37/14 1/38/14
f 13/3/1 3/17/1 7/21/1
f 2/16/1 8/22/1 7/21/1
f 7/21/1 20/1/1 13/3/1
f 19/2/1 14/27/1 13/3/1
f 3/17/1 2/16/1 7/21/1
f 21/5/2 23/34/2 17/30/2
f 22/33/2 18/31/2 17/30/2
f 17/30/2 15/4/2 21/5/2
f 14/1/2 19/21/2 21/5/2
f 23/34/2 22/33/2 17/30/2
f 4/8/3 16/39/3 24/40/3
f 18/41/3 22/42/3 24/40/3
f 24/40/3 10/6/3 4/8/3
f 12/7/3 5/43/3 4/8/3
f 16/39/3 18/41/3 24/40/3
f 15/11/4 17/44/4 6/20/4
f 16/45/4 4/18/4 6/20/4
f 6/20/4 1/9/4 15/11/4
f 3/10/4 13/46/4 15/11/4
f 17/44/4 16/45/4 6/20/4
f 9/14/5 11/25/5 23/47/5
f 10/24/5 24/43/5 23/47/5
f 23/47/5 21/12/5 9/14/5
f 20/13/5 7/48/5 9/14/5
f 11/25/5 10/24/5 23/47/5
f 1/38/14 6/41/14 11/49/14
f 5/39/14 12/50/14 11/49/14
f 11/49/14 9/36/14 1/38/14
f 8/37/14 2/51/14 1/38/14
f 6/41/14 5/39/14 11/49/14
